<svg width="65" height="27" viewBox="0 0 65 27" fill="none" xmlns="http://www.w3.org/2000/svg">
<g clip-path="url(#clip0_103_269)">
<g clip-path="url(#clip1_103_269)">
<path d="M57.4683 5L57.4683 26.8182H54.0173V23.4091H53.7145C53.2302 24.5739 52.4482 25.4782 51.3685 26.1222C50.2888 26.7756 48.3988 27.1667 46.8852 27.1667C45.1092 27.1667 45.8196 27.3333 43.6491 26.1222C42.6199 25.4782 41.8176 24.5739 41.2425 23.4091H41.0003C40.405 24.536 39.5119 25.4309 38.3212 26.0938C37.1305 26.7661 35.7027 27.1023 34.0377 27.1023C31.9591 27.1023 30.2588 26.4915 28.9369 25.2699C27.615 24.0578 26.9541 22.1686 26.9541 19.6023L26.9541 14.3333L30.5262 12L30.5262 19.6023C30.5262 21.2121 30.9954 22.3627 31.9338 23.054C32.8723 23.7453 33.9772 24.0909 35.2486 24.0909C36.8833 24.0909 38.1497 23.6269 39.0478 22.6989C39.9458 21.7803 40.3949 20.6155 40.3949 19.2045L40.3949 5L44.0275 5L44.0275 19.9432C44.0275 21.1837 44.4564 22.1828 45.3141 22.9403C46.1718 23.7074 47.2767 24.0909 48.6288 24.0909C49.5572 24.0909 50.425 23.8589 51.2322 23.3949C52.0294 22.9309 52.6752 22.2869 53.1696 21.4631C53.654 20.6487 53.8962 19.7064 53.8962 18.6364V5L57.4683 5Z" fill="#FCFCFC"/>
</g>
<ellipse cx="42.1258" cy="2" rx="2.13115" ry="2" fill="#868686"/>
<path d="M60.8425 27.1517L55.2725 18.2312L50.9005 25.2636C50.1705 26.4377 48.886 27.1517 47.5034 27.1517H45.5854L53.0929 16.2426L45.5855 5.3335L49.7024 5.3335L55.2725 13.7994L60.8425 5.3335L64.9595 5.3335L57.5732 16.2426L64.9595 27.1517H60.8425Z" fill="#FCFCFC"/>
<path d="M0 27V5.28278H3.45466V8.67609H3.7577C4.24256 7.51671 5.02542 6.61654 6.10626 5.97558C7.1871 5.32519 8.48513 5 10.0003 5C11.5357 5 12.8135 5.32519 13.8338 5.97558C14.8641 6.61654 15.6672 7.51671 16.243 8.67609H16.4854C17.0814 7.55441 17.9753 6.66367 19.1673 6.00386C20.3592 5.33462 21.7886 5 23.4553 5C25.5362 5 27.2383 5.60797 28.5615 6.82391C29.8848 8.03042 30.5465 9.91088 30.5465 12.4653V25.8333L26.9706 18.5V12.4653C26.9706 10.8629 26.5009 9.71765 25.5614 9.02956C24.622 8.34147 23.5159 7.99743 22.2432 7.99743C20.6067 7.99743 19.339 8.4593 18.44 9.38303C17.541 10.2973 17.0915 11.4567 17.0915 12.8612V27H13.455V12.126C13.455 10.8912 13.0257 9.89674 12.1671 9.14267C11.3084 8.37918 10.2024 7.99743 8.84877 7.99743C7.91945 7.99743 7.05074 8.22836 6.24263 8.69023C5.44462 9.1521 4.79814 9.79306 4.30317 10.6131C3.81831 11.4237 3.57587 12.3616 3.57587 13.4267V27H0Z" fill="#FCFCFC"/>
</g>
<defs>
<clipPath id="clip0_103_269">
<rect width="65" height="27" fill="white"/>
</clipPath>
<clipPath id="clip1_103_269">
<rect width="26.2842" height="35.3333" fill="white" transform="translate(23.4426 2)"/>
</clipPath>
</defs>
</svg>
