<svg width="105" height="13" viewBox="0 0 105 13" fill="none" xmlns="http://www.w3.org/2000/svg">
<path d="M0 12.8187V0.36255H4.74408C8.61497 0.36255 10.9195 2.60691 10.9195 6.54316V6.56042C10.9195 10.5053 8.63297 12.8187 4.74408 12.8187H0ZM2.32253 10.9369H4.50103C7.11163 10.9369 8.55196 9.40903 8.55196 6.56906V6.55179C8.55196 3.77224 7.08462 2.24436 4.50103 2.24436H2.32253V10.9369Z" fill="black"/>
<path d="M13.7281 2.35657C13.026 2.35657 12.4769 1.82138 12.4769 1.1826C12.4769 0.52656 13.026 0 13.7281 0C14.4303 0 14.9704 0.52656 14.9704 1.1826C14.9704 1.82138 14.4303 2.35657 13.7281 2.35657ZM12.6029 12.8187V3.66866H14.8444V12.8187H12.6029Z" fill="black"/>
<path d="M19.3274 12.8187L15.9516 3.66866H18.3372L20.5517 10.8247H20.6057L22.8112 3.66866H25.1517L21.794 12.8187H19.3274Z" fill="black"/>
<path d="M27.3753 2.35657C26.6731 2.35657 26.124 1.82138 26.124 1.1826C26.124 0.52656 26.6731 0 27.3753 0C28.0774 0 28.6175 0.52656 28.6175 1.1826C28.6175 1.82138 28.0774 2.35657 27.3753 2.35657ZM26.25 12.8187V3.66866H28.4915V12.8187H26.25Z" fill="black"/>
<path d="M30.4 12.8187V3.66866H32.6415V5.10159H32.6865C33.1816 4.11753 34.1538 3.47875 35.6031 3.47875C37.7006 3.47875 38.8979 4.77357 38.8979 6.89708V12.8187H36.6564V7.32869C36.6564 6.02523 36.0262 5.2915 34.7479 5.2915C33.4606 5.2915 32.6415 6.18924 32.6415 7.50996V12.8187H30.4Z" fill="black"/>
<path d="M44.8933 13C42.0306 13 40.3022 11.1786 40.3022 8.26959V8.26096C40.3022 5.37782 42.0576 3.47875 44.7852 3.47875C47.5129 3.47875 49.2052 5.3174 49.2052 8.07968V8.77025H42.5257C42.5617 10.3758 43.4799 11.3254 44.9383 11.3254C46.0545 11.3254 46.7837 10.7556 46.9997 10.1428L47.0177 10.0823H49.1152L49.0882 10.1773C48.7912 11.5843 47.3868 13 44.8933 13ZM44.8122 5.16202C43.624 5.16202 42.7328 5.93028 42.5527 7.33732H47.0267C46.8647 5.88712 46.0005 5.16202 44.8122 5.16202Z" fill="black"/>
<path d="M54.8675 13C52.0319 13 50.2585 11.17 50.2585 8.23506V8.22643C50.2585 5.30876 52.0589 3.47875 54.8405 3.47875C57.3521 3.47875 58.9185 5.00664 59.0535 6.83665L59.0625 6.90571H56.947L56.929 6.82802C56.74 5.93891 56.0558 5.22244 54.8675 5.22244C53.4542 5.22244 52.545 6.37052 52.545 8.24369V8.25232C52.545 10.16 53.4632 11.2649 54.8765 11.2649C56.0108 11.2649 56.731 10.6175 56.938 9.65936L56.956 9.58167H59.0715L59.0625 9.6421C58.8915 11.5498 57.2801 13 54.8675 13Z" fill="black"/>
<path d="M64.6348 13C61.8261 13 60.0167 11.2045 60.0167 8.24369V8.22643C60.0167 5.2915 61.8531 3.47875 64.6258 3.47875C67.4074 3.47875 69.2528 5.27424 69.2528 8.22643V8.24369C69.2528 11.2131 67.4344 13 64.6348 13ZM64.6438 11.2649C66.0571 11.2649 66.9663 10.16 66.9663 8.24369V8.22643C66.9663 6.31873 66.0481 5.22244 64.6258 5.22244C63.2305 5.22244 62.3032 6.32736 62.3032 8.22643V8.24369C62.3032 10.1687 63.2125 11.2649 64.6438 11.2649Z" fill="black"/>
<path d="M73.9429 13C71.8454 13 70.6481 11.7052 70.6481 9.58167V3.66866H72.8897V9.1587C72.8897 10.4535 73.5198 11.1873 74.7981 11.1873C76.0854 11.1873 76.9046 10.2981 76.9046 8.96879V3.66866H79.1461V12.8187H76.9046V11.3858H76.8596C76.3645 12.3612 75.3832 13 73.9429 13Z" fill="black"/>
<path d="M80.9915 12.8187V3.66866H83.233V5.24834H83.278C83.5751 4.14343 84.3673 3.47875 85.4655 3.47875C85.7446 3.47875 86.0057 3.52191 86.1767 3.56507V5.5073C85.9877 5.43825 85.6456 5.38645 85.2675 5.38645C83.9982 5.38645 83.233 6.15471 83.233 7.50996V12.8187H80.9915Z" fill="black"/>
<path d="M91.0558 13C88.5532 13 87.1219 11.8606 86.9239 10.16L86.9149 10.0823H89.1204L89.1384 10.16C89.3094 10.9456 89.9306 11.4117 91.0648 11.4117C92.1541 11.4117 92.8112 10.9887 92.8112 10.3154V10.3068C92.8112 9.75432 92.4781 9.44356 91.4879 9.22776L89.9035 8.8911C88.0761 8.50266 87.1579 7.64807 87.1579 6.29283V6.2842C87.1579 4.60956 88.6793 3.47875 90.9838 3.47875C93.3603 3.47875 94.7467 4.73041 94.8277 6.31009L94.8367 6.40505H92.7482L92.7392 6.33599C92.6402 5.60226 92.028 5.06706 90.9838 5.06706C89.9936 5.06706 89.3724 5.5073 89.3724 6.18061V6.18924C89.3724 6.7158 89.7415 7.06109 90.7317 7.27689L92.3251 7.61355C94.2966 8.03652 95.0617 8.77888 95.0617 10.1082V10.1169C95.0617 11.8433 93.3963 13 91.0558 13Z" fill="black"/>
<path d="M100.688 13C97.8254 13 96.097 11.1786 96.097 8.26959V8.26096C96.097 5.37782 97.8524 3.47875 100.58 3.47875C103.308 3.47875 105 5.3174 105 8.07968V8.77025H98.3205C98.3565 10.3758 99.2747 11.3254 100.733 11.3254C101.849 11.3254 102.578 10.7556 102.794 10.1428L102.812 10.0823H104.91L104.883 10.1773C104.586 11.5843 103.182 13 100.688 13ZM100.607 5.16202C99.4187 5.16202 98.5275 5.93028 98.3475 7.33732H102.822C102.659 5.88712 101.795 5.16202 100.607 5.16202Z" fill="black"/>
</svg>
