<svg width="44" height="28" viewBox="0 0 44 28" fill="none" xmlns="http://www.w3.org/2000/svg">
<path d="M22.2177 23.6475C24.8376 21.2344 26.4923 17.7871 26.4923 13.9951C26.4923 10.1342 24.8376 6.68686 22.2177 4.3427C19.8735 2.27433 16.8399 0.964355 13.4615 0.964355C6.22222 0.964355 0.361816 6.82476 0.361816 13.9951C0.361816 21.2344 6.22222 27.0948 13.4615 27.0948C16.8399 27.0259 19.8735 25.7159 22.2177 23.6475Z" fill="#3362AB"/>
<path d="M22.2175 23.6476C24.8375 21.2345 26.4922 17.7872 26.4922 13.9952C26.4922 10.1342 24.8375 6.68693 22.2175 4.34277" fill="#3362AB"/>
<path d="M22.2175 23.6476C24.8375 21.2345 26.4922 17.7872 26.4922 13.9952C26.4922 10.1342 24.8375 6.68693 22.2175 4.34277" stroke="#3362AB" stroke-width="0.3097"/>
<path d="M30.9738 0.895508C27.5955 0.895508 24.4929 2.20548 22.2177 4.27385C21.7351 4.68753 21.3214 5.17015 20.9077 5.65277H23.5277C23.8724 6.06644 24.2171 6.54906 24.4929 7.03169H19.8735C19.5978 7.44536 19.322 7.92798 19.1151 8.4106H25.2513C25.4582 8.89322 25.665 9.3069 25.8029 9.78952H18.5636C18.4257 10.2721 18.2878 10.6858 18.1499 11.1684H26.1476C26.3545 12.0647 26.4234 12.961 26.4234 13.9263C26.4234 15.3741 26.2166 16.7531 25.7339 18.063H18.4946C18.6325 18.5456 18.8394 19.0283 19.0462 19.4419H25.1824C24.9755 19.9246 24.6998 20.4072 24.424 20.8209H19.8046C20.0804 21.3035 20.4251 21.7861 20.7698 22.1998H23.3898C22.9761 22.6824 22.5624 23.165 22.0798 23.5787C24.424 25.6471 27.4576 26.957 30.8359 26.957C38.0753 26.957 43.8667 21.0966 43.8667 13.8573C44.0735 6.75591 38.2132 0.895508 30.9738 0.895508Z" fill="#C9191B"/>
<path d="M11.8069 17.1666H10.1522L11.1174 12.0647L8.91117 17.1666H7.4633L7.18752 12.1336L6.22226 17.1666H4.77441L6.01543 10.5479H8.56644L8.70432 14.6846L10.4969 10.5479H13.1168L11.8069 17.1666Z" fill="white"/>
<path d="M30.0084 17.1666C29.5947 17.3044 29.1811 17.3734 28.8363 17.3734C28.009 17.3734 27.5264 16.9597 27.5264 16.2013C27.5264 16.0634 27.5264 15.8566 27.5953 15.7187L27.6642 15.1671L27.7332 14.7535L28.4916 10.6167H30.0774L29.8705 11.8577H30.6979L30.491 13.1677H29.6637L29.25 15.4429C29.25 15.5119 29.25 15.6498 29.25 15.6498C29.25 15.9255 29.4568 16.0634 29.8016 16.0634C30.0084 16.0634 30.1463 16.0634 30.2153 15.9945L30.0084 17.1666Z" fill="white"/>
<path d="M34.6971 11.858C34.5592 11.7891 34.5592 11.7891 34.4902 11.7891C34.4213 11.7891 34.3523 11.7891 34.3523 11.7891C34.2834 11.7891 34.2144 11.7891 34.1455 11.7891C33.5939 11.7891 33.2492 11.9959 32.6976 12.6854L32.8355 11.858H31.5255L30.5603 17.2358H32.215C32.7666 13.9264 33.0423 13.3748 33.8007 13.3748C33.8697 13.3748 33.9387 13.3748 34.0076 13.3748L34.2144 13.4438L34.6971 11.858Z" fill="white"/>
<path d="M23.5277 13.5128C23.5277 14.2023 23.9414 14.6849 24.7688 15.0296C25.4582 15.3054 25.5272 15.3743 25.5272 15.6501C25.5272 15.9949 25.2514 16.1327 24.5619 16.1327C24.0793 16.1327 23.5967 16.0638 23.1141 15.9259L22.9072 17.1669H22.9762L23.252 17.2359C23.3209 17.2359 23.5277 17.3048 23.6656 17.3048C24.0793 17.3048 24.3551 17.3738 24.5619 17.3738C26.2856 17.3738 27.1129 16.8222 27.1129 15.5812C27.1129 14.8228 26.7682 14.4091 25.9408 14.0644C25.2514 13.7886 25.1824 13.7196 25.1824 13.4439C25.1824 13.1681 25.4582 13.0302 26.0098 13.0302C26.3545 13.0302 26.7682 13.0302 27.1819 13.0991L27.3887 11.8581C26.975 11.7892 26.3545 11.7202 25.9408 11.7202C24.1482 11.7202 23.5277 12.5476 23.5277 13.5128Z" fill="white"/>
<path d="M15.9437 14.8228C15.7368 14.8228 15.6679 14.8228 15.5989 14.8228C14.7026 14.8228 14.22 15.0986 14.22 15.6501C14.22 15.9949 14.4269 16.2017 14.7716 16.2017C15.3921 16.1328 15.8747 15.5812 15.9437 14.8228ZM17.1158 17.1669H15.7368L15.8058 16.6154C15.3921 17.0291 14.8405 17.2359 14.0821 17.2359C13.1858 17.2359 12.6343 16.6154 12.6343 15.788C12.6343 14.478 13.6685 13.7196 15.4611 13.7196C15.6679 13.7196 15.8747 13.7196 16.1505 13.7886C16.2195 13.5818 16.2194 13.5128 16.2194 13.4439C16.2194 13.0991 15.9437 12.9612 15.1853 12.9612C14.7026 12.9612 14.22 13.0302 13.8753 13.0991L13.6685 13.1681L13.5306 13.237L13.7374 11.996C14.5648 11.7892 15.0474 11.7202 15.6679 11.7202C17.0468 11.7202 17.8052 12.2718 17.8052 13.306C17.8052 13.5818 17.8052 13.7886 17.6673 14.3402L17.3226 16.2706L17.2536 16.6154L17.1847 16.8912V17.098L17.1158 17.1669Z" fill="white"/>
<path d="M21.5972 13.8572C21.5972 13.7193 21.5972 13.6503 21.5972 13.5814C21.5972 13.1677 21.3214 12.8919 20.8387 12.8919C20.2872 12.8919 19.9425 13.2366 19.8046 13.8572H21.5972ZM22.4245 17.0976C21.8729 17.2355 21.3214 17.3044 20.7698 17.3044C18.9772 17.3044 18.012 16.4771 18.012 14.8913C18.012 13.0298 19.184 11.6509 20.8387 11.6509C22.1487 11.6509 23.045 12.4093 23.045 13.5814C23.045 13.995 22.9761 14.3398 22.8382 14.8913H19.5977C19.5977 14.9603 19.5977 15.0292 19.5977 15.0292C19.5977 15.6497 20.0803 15.9945 21.0456 15.9945C21.5971 15.9945 22.1487 15.8566 22.7692 15.6497L22.4245 17.0976Z" fill="white"/>
<path d="M38.0753 14.0644C38.0753 13.5128 37.8684 12.9612 37.179 12.9612C36.3516 12.9612 35.869 13.9265 35.869 14.8228C35.869 15.5812 36.2137 16.0638 36.8343 16.0638C37.179 16.0638 37.9374 15.5812 38.0753 14.7538C38.0753 14.547 38.0753 14.2712 38.0753 14.0644ZM39.7989 14.7538C39.5231 16.5464 38.2821 17.3738 36.6274 17.3738C34.7659 17.3738 34.0764 16.2706 34.0764 14.8917C34.0764 12.9612 35.3174 11.7202 37.2479 11.7202C38.9716 11.7202 39.7989 12.7544 39.7989 14.1333C39.8679 14.4091 39.8679 14.4091 39.7989 14.7538Z" fill="white"/>
</svg>
