<svg width="45" height="28" viewBox="0 0 45 28" fill="none" xmlns="http://www.w3.org/2000/svg">
<path d="M44.8147 13.9952C44.8147 21.3724 38.8164 27.4397 31.3702 27.4397C23.993 27.4397 17.9258 21.3724 17.9258 13.9952C17.9258 6.61802 23.9241 0.550781 31.3013 0.550781C38.8164 0.550781 44.8147 6.61802 44.8147 13.9952Z" fill="#F9B50B"/>
<path d="M26.8199 14.0642C26.8199 13.0989 26.6821 12.1337 26.5442 11.2374H18.2707C18.3396 10.7548 18.4775 10.3411 18.6154 9.78953H25.9926C25.8547 9.30691 25.6479 8.82429 25.441 8.34166H19.167C19.3738 7.85904 19.6496 7.44537 19.9254 6.8938H24.6826C24.4068 6.41118 24.0621 5.92856 23.6484 5.44594H21.0285C21.4422 4.96332 21.8558 4.54964 22.4074 4.06702C20.0632 1.86075 16.8917 0.550781 13.3755 0.550781C6.06724 0.757619 0 6.61802 0 13.9952C0 21.3724 5.99829 27.4397 13.4444 27.4397C16.9607 27.4397 20.0632 26.0608 22.4764 23.9234C22.959 23.5098 23.3726 23.0271 23.8553 22.4756H21.0974C20.7527 22.0619 20.408 21.5793 20.1322 21.0967H24.8205C25.0963 20.683 25.3721 20.2004 25.5789 19.6488H19.3048C19.098 19.2351 18.8912 18.7525 18.7533 18.2009H26.1305C26.5442 16.9599 26.8199 15.581 26.8199 14.0642Z" fill="#C8191C"/>
<path d="M18.2017 17.443L18.4085 16.202C18.3396 16.202 18.2017 16.2709 18.0638 16.2709C17.5812 16.2709 17.5122 15.9952 17.5812 15.8573L17.9948 13.3752H18.7532L18.9601 11.9963H18.2706L18.4085 11.1689H16.9607C16.9607 11.1689 16.1333 15.8573 16.1333 16.4088C16.1333 17.2362 16.6159 17.6499 17.3054 17.6499C17.7191 17.6499 18.0638 17.512 18.2017 17.443Z" fill="white"/>
<path d="M18.6846 15.1675C18.6846 17.167 20.0635 17.6496 21.1666 17.6496C22.2008 17.6496 22.6834 17.4427 22.6834 17.4427L22.9592 16.0638C22.9592 16.0638 22.2008 16.4086 21.4424 16.4086C19.8567 16.4086 20.1324 15.2365 20.1324 15.2365H23.0282C23.0282 15.2365 23.235 14.3402 23.235 13.9265C23.235 13.0302 22.7524 11.8581 21.1666 11.8581C19.7877 11.7892 18.6846 13.3749 18.6846 15.1675ZM21.1666 13.0992C21.925 13.0992 21.7871 13.9954 21.7871 14.0644H20.2014C20.2703 13.9954 20.4082 13.0992 21.1666 13.0992Z" fill="white"/>
<path d="M30.1985 17.4425L30.4743 15.8568C30.4743 15.8568 29.7848 16.2015 29.2332 16.2015C28.268 16.2015 27.7854 15.4431 27.7854 14.5468C27.7854 12.8232 28.6127 11.9269 29.6469 11.9269C30.3364 11.9269 30.9569 12.3405 30.9569 12.3405L31.1637 10.8237C31.1637 10.8237 30.3364 10.479 29.509 10.479C27.8543 10.479 26.2686 11.9269 26.2686 14.6158C26.2686 16.4083 27.0959 17.5804 28.8196 17.5804C29.4401 17.6494 30.1985 17.4425 30.1985 17.4425Z" fill="white"/>
<path d="M10.4108 11.7891C9.44557 11.7891 8.68717 12.0648 8.68717 12.0648L8.48033 13.3059C8.48033 13.3059 9.10084 13.0301 10.0661 13.0301C10.5487 13.0301 10.9624 13.099 10.9624 13.5127C10.9624 13.7885 10.8934 13.8574 10.8934 13.8574H10.2729C9.0319 13.8574 7.72192 14.3401 7.72192 15.9948C7.72192 17.3047 8.54927 17.5805 9.10084 17.5805C10.0661 17.5805 10.5487 16.96 10.6177 16.96L10.5487 17.5116H11.7208L12.2724 13.5817C12.2724 11.858 10.8934 11.7891 10.4108 11.7891ZM10.6866 14.9606C10.6866 15.1674 10.5487 16.3395 9.72135 16.3395C9.30768 16.3395 9.16979 15.9948 9.16979 15.7879C9.16979 15.4432 9.37662 14.9606 10.4798 14.9606C10.6177 14.9606 10.6866 14.9606 10.6866 14.9606Z" fill="white"/>
<path d="M13.6514 17.5811C13.9961 17.5811 15.7887 17.65 15.7887 15.7196C15.7887 13.927 14.0651 14.2717 14.0651 13.5822C14.0651 13.2375 14.3408 13.0996 14.8235 13.0996C15.0303 13.0996 15.7887 13.1686 15.7887 13.1686L15.9955 11.8586C15.9955 11.8586 15.5129 11.7207 14.6166 11.7207C13.5824 11.7207 12.4793 12.1344 12.4793 13.5822C12.4793 15.2369 14.2719 15.0991 14.2719 15.7196C14.2719 16.1332 13.7893 16.2022 13.4445 16.2022C12.824 16.2022 12.1346 15.9953 12.1346 15.9953L11.9277 17.3053C12.0656 17.4432 12.4793 17.5811 13.6514 17.5811Z" fill="white"/>
<path d="M42.0571 10.6865L41.7813 12.617C41.7813 12.617 41.2297 11.9275 40.4024 11.9275C39.0924 11.9275 37.9893 13.5133 37.9893 15.3748C37.9893 16.5469 38.5408 17.719 39.7819 17.719C40.6092 17.719 41.1608 17.1674 41.1608 17.1674L41.0918 17.6501H42.5397L43.5739 10.8244L42.0571 10.6865ZM41.3676 14.4096C41.3676 15.168 41.0229 16.2022 40.1955 16.2022C39.7129 16.2022 39.4371 15.7885 39.4371 15.0301C39.4371 13.858 39.9197 13.1686 40.6092 13.1686C41.0918 13.2375 41.3676 13.5823 41.3676 14.4096Z" fill="white"/>
<path d="M2.61988 17.5122L3.44723 12.4102L3.58513 17.5122H4.55037L6.41191 12.4102L5.6535 17.5122H7.17031L8.34239 10.6865H5.99823L4.55037 14.8922L4.48142 10.6865H2.41305L1.24097 17.5122H2.61988Z" fill="white"/>
<path d="M24.6827 17.5119C25.0964 15.1677 25.1653 13.2372 26.1995 13.5819C26.3374 12.6857 26.5442 12.272 26.6821 11.9272H26.4063C25.7858 11.9272 25.2342 12.7546 25.2342 12.7546L25.3721 11.9962H23.9932L23.0969 17.5119H24.6827Z" fill="white"/>
<path d="M33.5077 11.7891C32.5425 11.7891 31.7841 12.0648 31.7841 12.0648L31.5773 13.3059C31.5773 13.3059 32.1978 13.0301 33.163 13.0301C33.6456 13.0301 34.0593 13.099 34.0593 13.5127C34.0593 13.7885 33.9904 13.8574 33.9904 13.8574H33.3698C32.1288 13.8574 30.8188 14.3401 30.8188 15.9948C30.8188 17.3047 31.6462 17.5805 32.1978 17.5805C33.163 17.5805 33.6456 16.96 33.7146 16.96L33.6456 17.5116H34.9556L35.5072 13.5817C35.5072 11.858 33.9904 11.7891 33.5077 11.7891ZM33.8525 14.9606C33.8525 15.1674 33.7146 16.3395 32.8872 16.3395C32.4735 16.3395 32.3357 15.9948 32.3357 15.7879C32.3357 15.4432 32.5425 14.9606 33.6456 14.9606C33.7835 14.9606 33.7835 14.9606 33.8525 14.9606Z" fill="white"/>
<path d="M36.6104 17.5119C37.0241 15.1677 37.093 13.2372 38.1272 13.5819C38.2651 12.6857 38.472 12.272 38.6098 11.9272H38.3341C37.7135 11.9272 37.162 12.7546 37.162 12.7546L37.2999 11.9962H35.921L35.0247 17.5119H36.6104Z" fill="white"/>
</svg>
