<svg width="39" height="12" viewBox="0 0 39 12" fill="none" xmlns="http://www.w3.org/2000/svg">
<path d="M34.4515 0.453125H27.0857C27.5148 2.88457 29.8747 5.173 32.4492 5.173H38.3133C38.3848 4.95846 38.3848 4.60089 38.3848 4.38635C38.3848 2.24096 36.5969 0.453125 34.4515 0.453125Z" fill="url(#paint0_linear_103_250)"/>
<path d="M27.7292 5.60205V11.5376H31.3049V8.39106H34.4515C36.1678 8.39106 37.6696 7.17534 38.1702 5.60205H27.7292Z" fill="#4FAD50"/>
<path d="M15.1431 0.453125V11.4662H18.2897C18.2897 11.4662 19.0763 11.4662 19.5054 10.6795C21.6508 6.46024 22.2944 5.173 22.2944 5.173H22.7235V11.4662H26.2991V0.453125H23.1526C23.1526 0.453125 22.3659 0.524643 21.9368 1.23977C20.149 4.88695 19.1478 6.74629 19.1478 6.74629H18.7187V0.453125H15.1431Z" fill="#4FAD50"/>
<path d="M0.125 11.5374V0.524414H3.70066C3.70066 0.524414 4.70186 0.524412 5.27396 2.0977C6.70423 6.24547 6.84726 6.81758 6.84726 6.81758C6.84726 6.81758 7.1333 5.81639 8.42054 2.0977C8.99264 0.524412 9.99384 0.524414 9.99384 0.524414H13.5695V11.5374H9.99384V5.60186H9.56475L7.56239 11.5374H5.98909L3.98673 5.60186H3.55765V11.5374H0.125Z" fill="#4FAD50"/>
<defs>
<linearGradient id="paint0_linear_103_250" x1="27.073" y1="2.84689" x2="38.3595" y2="2.84689" gradientUnits="userSpaceOnUse">
<stop stop-color="#27B1E6"/>
<stop offset="1" stop-color="#148ACA"/>
</linearGradient>
</defs>
</svg>
