<svg width="28" height="28" viewBox="0 0 28 28" fill="none" xmlns="http://www.w3.org/2000/svg">
<g clip-path="url(#clip0_236_117)">
<path d="M25.0894 0.269043H2.91048C1.44114 0.269043 0.25 1.55157 0.25 3.13366V24.866C0.25 26.448 1.44114 27.7306 2.91048 27.7306H25.0894C26.5588 27.7306 27.7499 26.448 27.7499 24.866V3.13366C27.7499 1.55157 26.5588 0.269043 25.0894 0.269043Z" fill="#D2D2D2" stroke="black" stroke-width="2" stroke-miterlimit="10"/>
<path d="M21.964 4.1377H6.03613C4.9797 4.1377 4.12329 5.05982 4.12329 6.19731V21.8046C4.12329 22.9421 4.9797 23.8642 6.03613 23.8642H21.964C23.0204 23.8642 23.8768 22.9421 23.8768 21.8046V6.19731C23.8768 5.05982 23.0204 4.1377 21.964 4.1377Z" fill="#212120" stroke="black" stroke-width="2" stroke-miterlimit="10"/>
<path d="M19.9336 7.87481L7.48385 13.0979C7.39522 13.1345 7.31953 13.2002 7.26747 13.2857C7.21542 13.3711 7.18964 13.4721 7.19379 13.5742C7.19794 13.6763 7.2318 13.7744 7.29058 13.8546C7.34937 13.9349 7.4301 13.9932 7.52135 14.0214L10.6844 15.0283L11.8646 19.0667C11.8927 19.1631 11.9434 19.2499 12.012 19.3188C12.0805 19.3878 12.1644 19.4364 12.2556 19.46C12.3467 19.4836 12.442 19.4813 12.5322 19.4535C12.6223 19.4256 12.7041 19.3731 12.7698 19.301L14.4051 17.4998L17.6157 20.036C17.706 20.1069 17.8114 20.1523 17.9222 20.1681C18.033 20.1839 18.1458 20.1696 18.2502 20.1266C18.3545 20.0835 18.4473 20.013 18.5199 19.9214C18.5925 19.8299 18.6427 19.7203 18.6658 19.6025L20.7912 8.66097C20.8147 8.5396 20.8074 8.41365 20.77 8.2964C20.7326 8.17914 20.6665 8.07492 20.5787 7.99472C20.4909 7.91451 20.3846 7.86129 20.2711 7.84066C20.1576 7.82003 20.041 7.83276 19.9336 7.8775V7.87481ZM18.3708 10.2979L12.5898 15.809C12.5315 15.8632 12.4948 15.9393 12.4872 16.0217L12.2647 18.1514C12.2619 18.1659 12.2545 18.179 12.2438 18.1883C12.2331 18.1977 12.2197 18.2028 12.2059 18.2028C12.1921 18.2028 12.1788 18.1977 12.1681 18.1883C12.1574 18.179 12.15 18.1659 12.1472 18.1514L11.232 14.9852C11.2117 14.9147 11.2137 14.8389 11.2377 14.7697C11.2617 14.7005 11.3063 14.6419 11.3645 14.6029L18.1933 10.0421C18.2264 10.0168 18.2676 10.0066 18.3077 10.014C18.3478 10.0213 18.3835 10.0455 18.407 10.0812C18.4306 10.1169 18.44 10.1612 18.4332 10.2043C18.4264 10.2475 18.4039 10.286 18.3708 10.3114V10.2979Z" fill="#D2D2D2"/>
</g>
<defs>
<clipPath id="clip0_236_117">
<rect width="28" height="28" fill="white"/>
</clipPath>
</defs>
</svg>
