<svg width="48" height="16" viewBox="0 0 48 16" fill="none" xmlns="http://www.w3.org/2000/svg">
<path d="M44.4062 0.962891H41.4416C40.5453 0.962891 39.8558 1.23867 39.4421 2.13497L33.7886 15.0278H37.7874C37.7874 15.0278 38.4769 13.3042 38.6148 12.8905C39.0285 12.8905 42.9584 12.8905 43.5099 12.8905C43.6478 13.3731 43.9926 14.9589 43.9926 14.9589H47.5777L44.4062 0.962891ZM39.7179 9.9948C40.0626 9.16745 41.2347 6.06489 41.2347 6.06489C41.2347 6.13383 41.5795 5.23753 41.7173 4.75491L41.9931 5.99594C41.9931 5.99594 42.7515 9.37429 42.8894 10.0637H39.7179V9.9948Z" fill="#3362AB"/>
<path d="M34.0644 10.4083C34.0644 13.304 31.4445 15.2345 27.3767 15.2345C25.653 15.2345 23.9983 14.8898 23.1021 14.4761L23.6536 11.3046L24.1362 11.5114C25.3773 12.063 26.2046 12.2698 27.7214 12.2698C28.8246 12.2698 29.9966 11.8561 29.9966 10.8909C29.9966 10.2704 29.514 9.85671 27.9972 9.16726C26.5493 8.4778 24.6189 7.37466 24.6189 5.37523C24.6189 2.6174 27.3077 0.755859 31.0998 0.755859C32.5476 0.755859 33.7887 1.03164 34.5471 1.37637L33.9955 4.40999L33.7197 4.13421C33.0303 3.85842 32.134 3.58264 30.824 3.58264C29.3761 3.65159 28.6867 4.2721 28.6867 4.82367C28.6867 5.44418 29.514 5.9268 30.824 6.54731C33.0303 7.5815 34.0644 8.75358 34.0644 10.4083Z" fill="#3362AB"/>
<path d="M0.418945 1.10049L0.487891 0.824707H6.41724C7.24459 0.824707 7.8651 1.10049 8.07194 1.99679L9.38191 8.20192C8.07194 4.89251 5.03832 2.20362 0.418945 1.10049Z" fill="#F9B50B"/>
<path d="M17.7243 0.962501L11.726 14.9585H7.65823L4.21094 3.23771C6.69299 4.82347 8.76136 7.30552 9.51977 9.02917L9.93344 10.477L13.6565 0.893555H17.7243V0.962501Z" fill="#3362AB"/>
<path d="M19.3101 0.893555H23.1021L20.689 14.9585H16.897L19.3101 0.893555Z" fill="#3362AB"/>
</svg>
