<svg width="28" height="28" viewBox="0 0 28 28" fill="none" xmlns="http://www.w3.org/2000/svg">
<g clip-path="url(#clip0_236_103)">
<path d="M25.0894 0.269043H2.91048C1.44114 0.269043 0.25 1.55157 0.25 3.13366V24.866C0.25 26.448 1.44114 27.7306 2.91048 27.7306H25.0894C26.5588 27.7306 27.7499 26.448 27.7499 24.866V3.13366C27.7499 1.55157 26.5588 0.269043 25.0894 0.269043Z" fill="#D2D2D2" stroke="black" stroke-width="2" stroke-miterlimit="10"/>
<path d="M21.964 4.1377H6.03613C4.9797 4.1377 4.12329 5.05982 4.12329 6.19731V21.8046C4.12329 22.9421 4.9797 23.8642 6.03613 23.8642H21.964C23.0204 23.8642 23.8768 22.9421 23.8768 21.8046V6.19731C23.8768 5.05982 23.0204 4.1377 21.964 4.1377Z" fill="#212120" stroke="black" stroke-width="2" stroke-miterlimit="10"/>
<path d="M18.8883 8.88428H9.11159C8.15182 8.88428 7.37378 9.72202 7.37378 10.7554V17.2439C7.37378 18.2773 8.15182 19.115 9.11159 19.115H18.8883C19.8481 19.115 20.6261 18.2773 20.6261 17.2439V10.7554C20.6261 9.72202 19.8481 8.88428 18.8883 8.88428Z" fill="#D2D2D2"/>
<path d="M12.3222 16.1509L12.2672 13.9998L12.2122 11.8486L14 12.8717L15.7878 13.8948L14.055 15.0229L12.3222 16.1509Z" fill="#29292D"/>
</g>
<defs>
<clipPath id="clip0_236_103">
<rect width="28" height="28" fill="white"/>
</clipPath>
</defs>
</svg>
